<svg width="131" height="105" viewBox="0 0 131 105" fill="none" xmlns="http://www.w3.org/2000/svg">
<path d="M3.38514 2.78943H127.439V97.6315H3.38514V2.78943Z" stroke="black" stroke-width="6"/>
<path d="M17.2085 34.6359C14.8673 34.6359 12.754 34.171 10.869 33.2412C8.98381 32.3114 7.35715 31.0561 5.98887 29.4754C4.62062 27.8637 3.55643 26.066 2.7963 24.0824C2.06657 22.0678 1.7017 20.0067 1.7017 17.8991C1.7017 15.6985 2.09697 13.6064 2.88752 11.6228C3.67805 9.60811 4.77264 7.82598 6.17133 6.27627C7.56995 4.69556 9.21185 3.4558 11.097 2.55697C13.0126 1.62714 15.0801 1.16223 17.2997 1.16223C19.6105 1.16223 21.7085 1.64264 23.5936 2.60346C25.5092 3.56428 27.1358 4.85053 28.4737 6.46223C29.8419 8.07392 30.8909 9.87162 31.6207 11.8552C32.3808 13.8388 32.7609 15.869 32.7609 17.9456C32.7609 20.1462 32.3655 22.2537 31.5751 24.2684C30.8149 26.252 29.7355 28.0342 28.3369 29.6149C26.9382 31.1646 25.2811 32.3888 23.3656 33.2877C21.4804 34.1865 19.4281 34.6359 17.2085 34.6359ZM6.90106 17.8991C6.90106 19.4488 7.14425 20.952 7.6308 22.4087C8.11725 23.8655 8.80137 25.1672 9.68316 26.314C10.5953 27.4298 11.6899 28.3131 12.9669 28.964C14.244 29.6149 15.673 29.9403 17.2541 29.9403C18.896 29.9403 20.3555 29.5993 21.6325 28.9175C22.9095 28.2357 23.9736 27.3213 24.8251 26.1745C25.7067 24.9967 26.3757 23.6949 26.8318 22.2692C27.2879 20.8125 27.5159 19.3558 27.5159 17.8991C27.5159 16.3493 27.2727 14.8616 26.7862 13.4359C26.3301 11.9792 25.646 10.6929 24.7338 9.57714C23.8217 8.43035 22.7271 7.53153 21.4501 6.88065C20.2034 6.22978 18.8048 5.90434 17.2541 5.90434C15.6122 5.90434 14.1528 6.24528 12.8757 6.92714C11.5987 7.60901 10.5192 8.52334 9.63755 9.67013C8.75576 10.8169 8.07164 12.1032 7.58519 13.5289C7.12911 14.9546 6.90106 16.4114 6.90106 17.8991ZM79.2333 1.39469V34.4035H74.0796V19.8517H57.7519V34.4035H52.6438V1.39469H57.7519V15.2026H74.0796V1.39469H79.2333ZM114.587 34.6359C112.246 34.6359 110.133 34.171 108.247 33.2412C106.363 32.3114 104.735 31.0561 103.367 29.4754C101.999 27.8637 100.935 26.066 100.175 24.0824C99.4449 22.0678 99.0801 20.0067 99.0801 17.8991C99.0801 15.6985 99.4759 13.6064 100.266 11.6228C101.057 9.60811 102.151 7.82598 103.55 6.27627C104.949 4.69556 106.591 3.4558 108.475 2.55697C110.391 1.62714 112.459 1.16223 114.678 1.16223C116.989 1.16223 119.087 1.64264 120.972 2.60346C122.888 3.56428 124.515 4.85053 125.852 6.46223C127.22 8.07392 128.269 9.87162 128.999 11.8552C129.76 13.8388 130.139 15.869 130.139 17.9456C130.139 20.1462 129.744 22.2537 128.953 24.2684C128.194 26.252 127.114 28.0342 125.715 29.6149C124.317 31.1646 122.659 32.3888 120.744 33.2877C118.859 34.1865 116.807 34.6359 114.587 34.6359ZM104.279 17.8991C104.279 19.4488 104.523 20.952 105.009 22.4087C105.496 23.8655 106.18 25.1672 107.061 26.314C107.974 27.4298 109.068 28.3131 110.345 28.964C111.622 29.6149 113.052 29.9403 114.632 29.9403C116.274 29.9403 117.734 29.5993 119.011 28.9175C120.288 28.2357 121.352 27.3213 122.203 26.1745C123.085 24.9967 123.754 23.6949 124.21 22.2692C124.666 20.8125 124.894 19.3558 124.894 17.8991C124.894 16.3493 124.652 14.8616 124.165 13.4359C123.708 11.9792 123.024 10.6929 122.112 9.57714C121.2 8.43035 120.105 7.53153 118.828 6.88065C117.582 6.22978 116.183 5.90434 114.632 5.90434C112.991 5.90434 111.531 6.24528 110.254 6.92714C108.977 7.60901 107.898 8.52334 107.016 9.67013C106.135 10.8169 105.451 12.1032 104.964 13.5289C104.507 14.9546 104.279 16.4114 104.279 17.8991ZM27.7535 38.5412H16.99V66.9473H11.8363V38.5412H1.02723V33.9385H27.7535V38.5412ZM59.324 62.3447V66.9473H37.1129V33.9385H58.9136V38.5412H42.221V47.9324H56.6788V52.2561H42.221V62.3447H59.324ZM69.656 66.9473V33.9385H92.4149V38.4947H74.7641V47.7464H84.2506C87.8385 47.7464 90.5295 48.6142 92.3237 50.3499C94.117 52.0546 95.0146 54.3172 95.0146 57.1377C95.0146 59.0283 94.6187 60.7175 93.8288 62.2052C93.068 63.662 91.9132 64.8242 90.3625 65.6921C88.842 66.5289 86.9111 66.9473 84.5699 66.9473H69.656ZM74.7641 62.3912H83.8857C85.2844 62.3912 86.4094 62.1278 87.2607 61.6008C88.1425 61.0739 88.7663 60.4076 89.1311 59.6017C89.5261 58.7649 89.724 57.8971 89.724 56.9982C89.724 56.0993 89.5562 55.2625 89.2223 54.4877C88.8876 53.7128 88.2792 53.0929 87.3976 52.628C86.5462 52.1321 85.3452 51.8842 83.7945 51.8842H74.7641V62.3912ZM127.036 62.3447V66.9473H104.825V33.9385H126.626V38.5412H109.933V47.9324H124.391V52.2561H109.933V62.3447H127.036ZM27.6399 66.4824V99.4912H22.4862V84.9394H6.15847V99.4912H1.05039V66.4824H6.15847V80.2903H22.4862V66.4824H27.6399ZM45.2065 66.4824H50.041L62.6288 99.4912H57.247L53.8264 90.5184H41.3298L37.9548 99.4912H32.5274L45.2065 66.4824ZM52.8231 86.6596L47.6237 72.2008L42.242 86.6596H52.8231ZM62.4375 105.814V94.8885H63.9882C64.8395 94.8885 65.5692 94.5473 66.1774 93.8657C66.8159 93.1842 67.348 92.0991 67.7737 90.6114C68.2297 89.1236 68.5794 87.171 68.8227 84.7535C69.0963 82.305 69.2939 79.314 69.4156 75.7806L69.6436 66.4824H90.4866V94.8885H94.5913V105.814H90.0761V99.4912H66.9527V105.814H62.4375ZM70.4645 94.8885H85.3328V71.085H74.3868L74.25 76.478C74.1588 80.0423 73.9764 83.0642 73.7027 85.5438C73.4291 87.9923 73.0337 89.976 72.5169 91.4947C72 93.0131 71.3159 94.1447 70.4645 94.8885ZM114.406 99.7236C112.065 99.7236 109.952 99.2587 108.067 98.3289C106.181 97.3991 104.555 96.1438 103.187 94.5631C101.818 92.9514 100.754 91.1537 99.9941 89.1701C99.2643 87.1555 98.8995 85.0944 98.8995 82.9868C98.8995 80.7862 99.2944 78.6941 100.085 76.7105C100.876 74.6958 101.971 72.9137 103.369 71.364C104.767 69.7833 106.409 68.5435 108.295 67.6447C110.21 66.7149 112.278 66.2499 114.497 66.2499C116.808 66.2499 118.906 66.7304 120.791 67.6912C122.707 68.652 124.333 69.9383 125.671 71.5499C127.04 73.1616 128.089 74.9593 128.818 76.9429C129.578 78.9265 129.959 80.9567 129.959 83.0333C129.959 85.2339 129.564 87.3414 128.773 89.3561C128.013 91.3397 126.933 93.1219 125.535 94.7026C124.136 96.2526 122.479 97.4762 120.563 98.3754C118.678 99.2745 116.626 99.7236 114.406 99.7236ZM104.099 82.9868C104.099 84.5365 104.342 86.0397 104.829 87.4964C105.315 88.9532 105.999 90.255 106.881 91.4017C107.793 92.5175 108.888 93.4008 110.165 94.0517C111.442 94.7026 112.871 95.028 114.452 95.028C116.094 95.028 117.553 94.6868 118.83 94.0052C120.107 93.3236 121.172 92.409 122.023 91.2622C122.905 90.0844 123.573 88.7827 124.03 87.357C124.486 85.9002 124.714 84.4435 124.714 82.9868C124.714 81.437 124.47 79.9493 123.984 78.5236C123.528 77.0669 122.844 75.7807 121.932 74.6649C121.019 73.5181 119.925 72.6192 118.648 71.9684C117.401 71.3175 116.002 70.9921 114.452 70.9921C112.81 70.9921 111.35 71.333 110.073 72.0149C108.796 72.6967 107.717 73.6111 106.835 74.7578C105.953 75.9046 105.269 77.1909 104.783 78.6166C104.327 80.0423 104.099 81.4991 104.099 82.9868Z" fill="black"/>
</svg>
